# xmcd CD database file
#
# Track frame offsets:
#	150
#	14415
#	28801
#	42435
#	55619
#	72341
#	86345
#	98917
#	111125
#	121429
#	133585
#	148408
#	162103
#	175740
#	195409
#	205342
#
# Disc length: 2899 seconds
#
# Revision: 1
# Processed by: cddbd v1.5.2PL0 Copyright (c) Steve Scherf et al.
# Submitted via: CDex 1.51
#
DISCID=e00b5110
DTITLE=John Lee Hooker - Blues Legend CD 1
DYEAR=2005
DGENRE=Blues
TTITLE0=Boogie Chillen'
TTITLE1=Sally Mae
TTITLE2=Hobo Blues
TTITLE3=Hoogie Boogie
TTITLE4=The Journey
TTITLE5=I'm In The Mood
TTITLE6=Huckle Up Baby
TTITLE7=Walkin' The Boogie
TTITLE8=Big Legs, Tight Skirt
TTITLE9=Guitar Lovin' Man
TTITLE10=Just Me And My Telephone
TTITLE11=Bluebird
TTITLE12=Decoration Day Blues
TTITLE13=House Rent Boogie
TTITLE14=Dimples
TTITLE15=Bumble Bee Blues
EXTD=YEAR: 2005
EXTT0=
EXTT1=
EXTT2=
EXTT3=
EXTT4=
EXTT5=
EXTT6=
EXTT7=
EXTT8=
EXTT9=
EXTT10=
EXTT11=
EXTT12=
EXTT13=
EXTT14=
EXTT15=
PLAYORDER=
